<?xml version="1.0" encoding="utf-8"?>
<!-- Generator: Adobe Illustrator 17.0.0, SVG Export Plug-In . SVG Version: 6.00 Build 0)  -->
<!DOCTYPE svg PUBLIC "-//W3C//DTD SVG 1.1//EN" "http://www.w3.org/Graphics/SVG/1.1/DTD/svg11.dtd">
<svg version="1.1" id="圖層_1" xmlns="http://www.w3.org/2000/svg" xmlns:xlink="http://www.w3.org/1999/xlink" x="0px" y="0px"
	 width="595.276px" height="595.276px" viewBox="71.255 153.307 595.276 595.276"
	 enable-background="new 71.255 153.307 595.276 595.276" xml:space="preserve">
<g>
	<g>
		<path d="M363.219,170.315c-108.435,0-196.666,88.23-196.666,196.666c0,104.955,179.94,349.664,187.686,359.992
			c2.133,2.919,5.388,4.603,8.98,4.603c3.592,0,6.96-1.684,9.092-4.603c7.633-10.328,187.686-255.036,187.686-359.992
			C559.997,258.545,471.766,170.315,363.219,170.315z M363.219,462.17c-52.421,0-95.077-42.656-95.077-95.189
			c0-52.422,42.656-95.077,95.077-95.077s95.189,42.655,95.189,95.077C458.408,419.514,415.64,462.17,363.219,462.17z"/>
	</g>
</g>
</svg>
